<?xml version="1.0" standalone="no"?>
<!DOCTYPE svg PUBLIC "-//W3C//DTD SVG 20010904//EN"
 "http://www.w3.org/TR/2001/REC-SVG-20010904/DTD/svg10.dtd">
<svg version="1.0" xmlns="http://www.w3.org/2000/svg"
 width="256.000000pt" height="256.000000pt" viewBox="0 0 256.000000 256.000000"
 preserveAspectRatio="xMidYMid meet">
<metadata>
Created by potrace 1.14, written by Peter Selinger 2001-2017
</metadata>
<g transform="translate(0.000000,256.000000) scale(0.100000,-0.100000)"
fill="#000000" stroke="none">
<path d="M1646 2225 c-168 -46 -295 -158 -362 -320 -26 -64 -29 -81 -29 -191
0 -103 -2 -121 -15 -119 -8 1 -44 6 -80 10 -265 29 -536 141 -755 314 -53 42
-215 202 -215 213 0 36 -44 -39 -65 -112 -22 -76 -22 -202 1 -279 31 -106 68
-166 158 -252 l49 -47 -44 5 c-24 3 -69 15 -99 25 -100 35 -92 37 -85 -18 16
-129 80 -261 164 -337 49 -44 144 -99 201 -116 38 -11 42 -15 25 -21 -11 -5
-62 -7 -113 -7 -50 1 -92 -2 -92 -6 0 -34 88 -166 149 -223 60 -57 200 -120
284 -127 20 -2 36 -8 35 -13 -4 -15 -117 -84 -195 -121 -123 -57 -248 -85
-413 -92 l-144 -6 124 -62 c227 -112 397 -154 640 -158 193 -4 317 10 460 52
240 69 445 189 614 359 279 279 440 647 452 1031 l3 112 73 64 c61 53 191 197
184 204 -1 1 -36 -9 -77 -23 -74 -25 -201 -55 -207 -49 -2 1 12 13 30 26 70
50 131 127 169 216 l19 44 -48 -25 c-75 -39 -132 -62 -209 -84 l-72 -20 -38
32 c-110 93 -198 127 -333 131 -57 2 -115 -2 -144 -10z"/>
</g>
</svg>
